PathFileType	4	(X/Y/Z)	/Users/itak/Documents/Research/Walk-IL/dataset/trc/00213_00009.trc
DataRate	CameraRate	NumFrames	NumMarkers	Units	OrigDataRate	OrigDataStartFrame	OrigNumFrames
100.000000	100.000000	4	55	mm	100.000000	0	418
Frame#	Time	RPSI			LPSI			L3			STRN			T10			C7			CLAV			RBAK			LBAK			LSHO			LUPA			LAEL			LAOL			LWTS			LWPS			LFRA			LIFD			LHPS			LHTS			RSHO			RUPA			RAEL			RAOL			RWTS			RWPS			RFRA			RIFD			RHTS			RHPS			RBHD			LFHD			RFHD			LBHD			LHIP			RHIP			RASI			LASI			LKNE			LTHI			LANK			LTIP			LTOE			LMT1			LMT5			LHEE			RKNE			RTHI			RANK			RTIP			RTOE			RMT1			RMT5			RHEE			*53			*54			
		X1	Y1	Z1	X2	Y2	Z2	X3	Y3	Z3	X4	Y4	Z4	X5	Y5	Z5	X6	Y6	Z6	X7	Y7	Z7	X8	Y8	Z8	X9	Y9	Z9	X10	Y10	Z10	X11	Y11	Z11	X12	Y12	Z12	X13	Y13	Z13	X14	Y14	Z14	X15	Y15	Z15	X16	Y16	Z16	X17	Y17	Z17	X18	Y18	Z18	X19	Y19	Z19	X20	Y20	Z20	X21	Y21	Z21	X22	Y22	Z22	X23	Y23	Z23	X24	Y24	Z24	X25	Y25	Z25	X26	Y26	Z26	X27	Y27	Z27	X28	Y28	Z28	X29	Y29	Z29	X30	Y30	Z30	X31	Y31	Z31	X32	Y32	Z32	X33	Y33	Z33	X34	Y34	Z34	X35	Y35	Z35	X36	Y36	Z36	X37	Y37	Z37	X38	Y38	Z38	X39	Y39	Z39	X40	Y40	Z40	X41	Y41	Z41	X42	Y42	Z42	X43	Y43	Z43	X44	Y44	Z44	X45	Y45	Z45	X46	Y46	Z46	X47	Y47	Z47	X48	Y48	Z48	X49	Y49	Z49	X50	Y50	Z50	X51	Y51	Z51	X52	Y52	Z52	X53	Y53	Z53	X54	Y54	Z54	X55	Y55	Z55	

1	0	-1657.696655273438	1055.916870117188	-121.7838516235352	-1630.375	1060.794921875	-237.7576141357422	-1650.310913085938	1136.385986328125	-200.8969573974609	-1406.500244140625	1328.938720703125	-150.9389343261719	-1656.657470703125	1263.921264648438	-193.7687225341797	-1602.398315429688	1524.47607421875	-193.5003967285156	-1439.941528320312	1443.85009765625	-156.3079071044922	-1688.338745117188	1383.113647460938	-139.1763305664062	-1601.963134765625	1487.707397460938	-301.3402404785156	-1505.538208007812	1489.386596679688	-340.3417358398438	-1536.022705078125	1374.23583984375	-424.1058654785156	-1547.118896484375	1169.903442382812	-459.1931762695312	-1619.537475585938	1158.762451171875	-412.0697631835938	-1502.40625	917.8572998046875	-432.2128601074219	-1530.369262695312	917.478271484375	-510.7610473632812	-1542.397583007812	1063.901733398438	-483.6166687011719	-1541.659790039062	727.7154541015625	-466.646728515625	-1534.556518554688	827.795654296875	-518.521484375	-1491.34423828125	814.1129150390625	-466.6373596191406	-1585.17041015625	1486.242919921875	-18.4550895690918	-1617.556640625	1422.131591796875	43.11125183105469	-1629.716064453125	1142.099365234375	84.4522705078125	-1654.937622070312	1133.772216796875	-7.467361927032471	-1481.770263671875	931.8357543945312	53.25753021240234	-1539.322509765625	915.7621459960938	113.6720962524414	-1601.711669921875	1074.521606445312	99.39610290527344	-1461.20849609375	737.615478515625	52.09228515625	-1439.61572265625	811.5499877929688	72.05377960205078	-1495.876953125	810.05224609375	117.7342376708984	-1599.7724609375	1669.521240234375	-170.0508880615234	-1387.465209960938	1749.6591796875	-165.6642761230469	-1434.462890625	1749.051025390625	-77.61966705322266	-1499.524291992188	1684.343383789062	-267.0402221679688	-1507.02490234375	993.2955322265625	-354.1734619140625	-1585.971435546875	1013.91455078125	2.75109338760376	-1483.458618164062	1055.975952148438	-13.19329261779785	-1416.787475585938	1034.7177734375	-286.3995056152344	-1511.981567382812	507.7848205566406	-301.2420043945312	-1499.378662109375	650.6762084960938	-333.2791442871094	-1602.63671875	40.50143814086914	-284.6485595703125	-1568.101928710938	287.365234375	-305.9115600585938	-1387.11083984375	46.78152847290039	-236.5592041015625	-1453.544067382812	39.86648178100586	-190.5869598388672	-1475.5048828125	41.79375457763672	-305.6815795898438	-1663.141235351562	45.86129379272461	-231.5848693847656	-1549.034912109375	518.9752807617188	-28.15517234802246	-1530.382690429688	786.7817993164062	21.44719314575195	-1630.893676757812	41.63013458251953	-66.93922424316406	-1545.4677734375	402.6192321777344	-46.50566864013672	-1415.65185546875	47.32400512695312	-72.32040405273438	-1463.584350585938	44.14762878417969	-124.8449172973633	-1526.5771484375	41.02016067504883	-22.42406845092773	-1683.178588867188	41.21177291870117	-135.2560882568359	nan	nan	nan	nan	nan	nan	
2	0.01	-1657.566162109375	1055.9404296875	-121.4613800048828	-1630.400024414062	1060.778442382812	-237.5845184326172	-1650.26611328125	1136.375122070312	-200.6836090087891	-1406.464477539062	1328.896118164062	-150.8287811279297	-1656.652954101562	1263.963989257812	-193.5898742675781	-1602.293334960938	1524.4423828125	-193.3467864990234	-1439.849975585938	1443.84228515625	-156.2011108398438	-1688.238891601562	1383.140747070312	-139.0006256103516	-1601.89013671875	1487.672485351562	-301.20703125	-1505.468505859375	1489.340454101562	-340.2035217285156	-1535.844604492188	1374.218627929688	-423.9696044921875	-1546.909301757812	1169.873291015625	-459.1513061523438	-1619.310791015625	1158.689575195312	-411.9011840820312	-1502.96337890625	917.596923828125	-432.9866333007812	-1530.8740234375	917.6886596679688	-511.4586181640625	-1542.4169921875	1063.991577148438	-483.7786560058594	-1543.348754882812	727.8721923828125	-467.9961853027344	-1535.507446289062	828.0618896484375	-519.4959106445312	-1492.33642578125	813.922607421875	-467.7545166015625	-1585.03466796875	1486.2275390625	-18.32212066650391	-1617.416870117188	1422.155029296875	43.23952102661133	-1629.683471679688	1142.093872070312	84.67880249023438	-1654.927978515625	1133.751831054688	-7.256410598754883	-1481.691040039062	931.8726806640625	53.46399688720703	-1539.253662109375	915.7759399414062	113.8544540405273	-1601.590209960938	1074.517456054688	99.58230590820312	-1461.071044921875	737.5767211914062	52.3411865234375	-1439.426635742188	811.583984375	72.29205322265625	-1495.716186523438	810.1134033203125	118.0604400634766	-1599.754516601562	1669.486938476562	-169.9880523681641	-1387.40185546875	1749.671020507812	-165.6001739501953	-1434.366577148438	1749.075927734375	-77.42777252197266	-1499.468872070312	1684.291748046875	-266.9205017089844	-1507.059692382812	993.30419921875	-354.0495910644531	-1585.943481445312	1013.960327148438	2.831181526184082	-1483.309936523438	1055.97509765625	-13.08519268035889	-1416.740600585938	1034.73046875	-286.3082885742188	-1511.982299804688	507.8089599609375	-301.1796875	-1499.3837890625	650.6927490234375	-333.2018432617188	-1602.634033203125	40.50663757324219	-284.6376037597656	-1568.071166992188	287.3741149902344	-305.8591613769531	-1387.111938476562	46.79505920410156	-236.5518188476562	-1453.53515625	39.84589004516602	-190.5695495605469	-1475.52001953125	41.82108688354492	-305.6805114746094	-1663.144287109375	45.8563346862793	-231.5853118896484	-1548.9482421875	518.9564208984375	-28.10318756103516	-1530.299194335938	786.8435668945312	21.66817855834961	-1630.88916015625	41.62895584106445	-66.93647003173828	-1545.4287109375	402.5980224609375	-46.47849273681641	-1415.65380859375	47.3204231262207	-72.31905364990234	-1463.587524414062	44.1431884765625	-124.8479385375977	-1526.586181640625	41.02581024169922	-22.43677711486816	-1683.182739257812	41.20858764648438	-135.2482147216797	nan	nan	nan	nan	nan	nan	
3	0.02	-1657.41357421875	1055.9619140625	-121.0603103637695	-1630.442749023438	1060.7626953125	-237.3560028076172	-1650.208984375	1136.362426757812	-200.3999786376953	-1406.422729492188	1328.845092773438	-150.6985931396484	-1656.638793945312	1264.012939453125	-193.3416748046875	-1602.170166015625	1524.405395507812	-193.1522827148438	-1439.736328125	1443.82958984375	-156.0632171630859	-1688.121337890625	1383.178588867188	-138.7726593017578	-1601.8173828125	1487.632080078125	-301.0346984863281	-1505.393676757812	1489.282836914062	-340.0304565429688	-1535.626098632812	1374.196044921875	-423.7940673828125	-1546.604370117188	1169.828857421875	-459.0895385742188	-1618.981567382812	1158.577392578125	-411.6913452148438	-1503.438842773438	917.297607421875	-433.8632202148438	-1531.33642578125	917.9285888671875	-512.2490844726562	-1542.342041015625	1064.088256835938	-483.9427490234375	-1545.171142578125	728.052978515625	-469.5428466796875	-1536.491821289062	828.3765258789062	-520.6163330078125	-1493.438354492188	813.68798828125	-469.0158081054688	-1584.848754882812	1486.20849609375	-18.14181327819824	-1617.22705078125	1422.184936523438	43.42547225952148	-1629.634765625	1142.09619140625	84.96098327636719	-1654.90185546875	1133.738891601562	-6.982112407684326	-1481.575927734375	931.9182739257812	53.73460388183594	-1539.123046875	915.7949829101562	114.0937576293945	-1601.424560546875	1074.516845703125	99.82363891601562	-1460.871826171875	737.5405883789062	52.66060256958008	-1439.193115234375	811.6165771484375	72.58672332763672	-1495.518188476562	810.1796875	118.4634094238281	-1599.735961914062	1669.456298828125	-169.8924407958984	-1387.298461914062	1749.683471679688	-165.5252380371094	-1434.225463867188	1749.09619140625	-77.21372222900391	-1499.413940429688	1684.236083984375	-266.7707214355469	-1507.136108398438	993.3171997070312	-353.8938598632812	-1585.85986328125	1013.999084472656	2.971022129058838	-1483.119873046875	1055.966186523438	-12.95050716400146	-1416.707641601562	1034.741943359375	-286.2060852050781	-1511.987670898438	507.8381652832031	-301.1019287109375	-1499.404663085938	650.7147827148438	-333.1075134277344	-1602.63134765625	40.51493453979492	-284.6239013671875	-1568.03271484375	287.3844299316406	-305.7942504882812	-1387.112915039062	46.80891799926758	-236.5425109863281	-1453.52490234375	39.82443237304688	-190.548583984375	-1475.550537109375	41.86069488525391	-305.6736755371094	-1663.147338867188	45.85386657714844	-231.5856170654297	-1548.838012695312	518.9283447265625	-28.03970718383789	-1530.1650390625	786.9024047851562	21.9217700958252	-1630.885375976562	41.62603378295898	-66.93228912353516	-1545.378540039062	402.5700988769531	-46.44343185424805	-1415.65576171875	47.31552124023438	-72.32164001464844	-1463.590209960938	44.13861846923828	-124.8533325195312	-1526.601318359375	41.03397369384766	-22.44526863098145	-1683.18798828125	41.20304107666016	-135.2368927001953	nan	nan	nan	nan	nan	nan	
4	0.03	-1657.25244140625	1055.976440429688	-120.6026000976562	-1630.508544921875	1060.751342773438	-237.0762176513672	-1650.140747070312	1136.349487304688	-200.0491943359375	-1406.37646484375	1328.789428710938	-150.5573272705078	-1656.60986328125	1264.0615234375	-193.0237274169922	-1602.038696289062	1524.370483398438	-192.9224548339844	-1439.606689453125	1443.811279296875	-155.8983764648438	-1687.993896484375	1383.2255859375	-138.4966125488281	-1601.756958007812	1487.58984375	-300.8280944824219	-1505.32373046875	1489.216674804688	-339.8299255371094	-1535.380981445312	1374.16796875	-423.5852661132812	-1546.198120117188	1169.768920898438	-459.0065002441406	-1618.542114257812	1158.420532226562	-411.4506225585938	-1503.6953125	916.9855346679688	-434.7506408691406	-1531.648193359375	918.1754760742188	-513.0552978515625	-1542.128295898438	1064.179443359375	-484.0838623046875	-1546.901245117188	728.2410888671875	-471.1475219726562	-1537.360229492188	828.712646484375	-521.7813720703125	-1494.50927734375	813.41943359375	-470.3043212890625	-1584.615844726562	1486.188232421875	-17.91658020019531	-1616.991088867188	1422.22119140625	43.67106246948242	-1629.564697265625	1142.110961914062	85.28948211669922	-1654.847412109375	1133.73876953125	-6.652705669403076	-1481.421264648438	931.9683837890625	54.06266403198242	-1538.919189453125	915.8189697265625	114.3862762451172	-1601.215209960938	1074.521728515625	100.1141204833984	-1460.604858398438	737.5150756835938	53.03805923461914	-1438.927001953125	811.647216796875	72.9248046875	-1495.2919921875	810.2444458007812	118.9186553955078	-1599.716064453125	1669.435546875	-169.7561798095703	-1387.148071289062	1749.694702148438	-165.4457397460938	-1434.035888671875	1749.105712890625	-76.99824523925781	-1499.367309570312	1684.183349609375	-266.5969848632812	-1507.265869140625	993.3350219726562	-353.7132873535156	-1585.698364257812	1014.022888183594	3.182929992675781	-1482.892822265625	1055.946411132812	-12.79504013061523	-1416.703857421875	1034.750366210938	-286.1013488769531	-1512.000244140625	507.8707275390625	-301.0127563476562	-1499.445678710938	650.7413940429688	-333.0014038085938	-1602.628662109375	40.52549743652344	-284.6079406738281	-1567.988647460938	287.3955688476562	-305.7200317382812	-1387.113159179688	46.82129287719727	-236.5316162109375	-1453.513671875	39.80377960205078	-190.525146484375	-1475.601318359375	41.90986251831055	-305.6575012207031	-1663.14990234375	45.85499572753906	-231.5855712890625	-1548.708984375	518.8912353515625	-27.96892356872559	-1529.978637695312	786.947998046875	22.19268989562988	-1630.882568359375	41.62038421630859	-66.92652130126953	-1545.318603515625	402.5361633300781	-46.40133666992188	-1415.656860351562	47.30966567993164	-72.32879638671875	-1463.59130859375	44.1340446472168	-124.861083984375	-1526.620971679688	41.04347229003906	-22.44869422912598	-1683.193481445312	41.19474792480469	-135.2223510742188	nan	nan	nan	nan	nan	nan	
